# xmcd
#
# Track frame offsets: 
#        150
#        16200
#        26927
#        42673
#        67876
#        86021
#        98697
#        114968
#        132782
#        150477
#
# Disc length: 2162 seconds
#
# Revision: 0
# Processed by: cddbd v1.5.2PL0 Copyright (c) Steve Scherf et al.
# Submitted via: ExactAudioCopy v1.3
#
DISCID=7508700a
DTITLE=Kenny Acosta - Justice Blues
DYEAR=2012
DGENRE=Blues
TTITLE0=Groceries From The Bayou
TTITLE1=Hog For Ya' Baby
TTITLE2=Maybe Tomorrow
TTITLE3=Justice Blues
TTITLE4=Tubin'
TTITLE5=Funkiest Man Alive
TTITLE6=Hot Dog
TTITLE7=Susan's Song
TTITLE8=It's All Good
TTITLE9=Shake That Thang
EXTD=
EXTT0=
EXTT1=
EXTT2=
EXTT3=
EXTT4=
EXTT5=
EXTT6=
EXTT7=
EXTT8=
EXTT9=
PLAYORDER=
